<svg xmlns="http://www.w3.org/2000/svg" viewBox="0 0 64 64">
  <defs>
    <radialGradient id="bg" cx="30%" cy="20%" r="95%">
      <stop offset="0%" stop-color="#f8f5ee"/>
      <stop offset="100%" stop-color="#ece8df"/>
    </radialGradient>
    <radialGradient id="core" cx="34%" cy="28%" r="72%">
      <stop offset="0%" stop-color="#464646"/>
      <stop offset="100%" stop-color="#101010"/>
    </radialGradient>
    <linearGradient id="spoke" x1="0" y1="0" x2="1" y2="1">
      <stop offset="0%" stop-color="#3c5164"/>
      <stop offset="100%" stop-color="#90a7bb"/>
    </linearGradient>
  </defs>

  <rect width="64" height="64" rx="14" fill="url(#bg)"/>

  <circle cx="32" cy="32" r="16" fill="none" stroke="#243847" stroke-width="1.2" opacity="0.28"/>

  <g opacity="0.95">
    <polygon fill="url(#spoke)" points="32,32 30.8,27.6 31.2,13.8 32.8,13.8"/>
    <polygon fill="url(#spoke)" points="32,32 33.6,28.4 42.8,19.4 44.0,20.8"/>
    <polygon fill="url(#spoke)" points="32,32 35.8,31.2 49.2,30.0 49.0,31.8"/>
    <polygon fill="url(#spoke)" points="32,32 34.6,34.2 41.4,45.4 40.0,46.4"/>
    <polygon fill="url(#spoke)" points="32,32 31.2,35.8 29.0,50.0 30.8,50.2"/>
    <polygon fill="url(#spoke)" points="32,32 28.8,34.6 17.2,40.8 16.4,39.2"/>
    <polygon fill="url(#spoke)" points="32,32 29.0,29.2 20.8,21.0 22.0,19.8"/>
  </g>

  <g stroke="#22333f" stroke-width="1.1">
    <circle cx="32" cy="15" r="4.2" fill="#f3e3c7"/>
    <circle cx="43.4" cy="20.2" r="3.9" fill="#d9e8f5"/>
    <circle cx="49" cy="31" r="4" fill="#efd9ca"/>
    <circle cx="40.8" cy="45.8" r="3.8" fill="#dce7d1"/>
    <circle cx="29.8" cy="50.2" r="4.2" fill="#f3e3c7"/>
    <circle cx="16.8" cy="40" r="4" fill="#d9e8f5"/>
    <circle cx="21.4" cy="20.4" r="3.8" fill="#dce7d1"/>
  </g>

  <circle cx="32" cy="32" r="10.8" fill="url(#core)" stroke="#f6f2e9" stroke-width="2"/>
</svg>
